<svg width="441" height="898" viewBox="0 0 441 898" fill="none" xmlns="http://www.w3.org/2000/svg">
<path d="M70 3.5H371C406.07 3.5 434.5 31.9299 434.5 67V831C434.5 866.07 406.07 894.5 371 894.5H70C34.9299 894.5 6.5 866.07 6.5 831V67C6.5 31.9299 34.9299 3.5 70 3.5Z" stroke="url(#paint0_linear_5658_89829)" stroke-width="7"/>
<rect x="13.25" y="10.25" width="414.5" height="877.5" rx="56.75" stroke="black" stroke-width="6.5"/>
<rect x="3" y="93" width="7" height="5" fill="#3A4158"/>
<rect x="335" width="5" height="7" fill="#3A4158"/>
<rect x="431" y="83" width="7" height="5" fill="#3A4158"/>
<rect y="175" width="3" height="33" fill="#303238"/>
<rect y="241" width="3" height="66" fill="#2B2E35"/>
<rect y="327" width="3" height="66" fill="#2B2D34"/>
<path d="M438 287H440C440.552 287 441 287.448 441 288V392C441 392.552 440.552 393 440 393H438V287Z" fill="url(#paint1_linear_5658_89829)"/>
<rect x="156" y="24" width="128" height="33" rx="16.5" fill="black"/>
<circle cx="266" cy="40" r="8" fill="url(#paint2_linear_5658_89829)"/>
<circle cx="266" cy="40" r="4.5" fill="url(#paint3_linear_5658_89829)"/>
<circle cx="266" cy="40" r="3" fill="#060606"/>
<g filter="url(#filter0_f_5658_89829)">
<ellipse cx="266" cy="38.5903" rx="1.0625" ry="0.590278" fill="#949494"/>
</g>
<g filter="url(#filter1_f_5658_89829)">
<ellipse cx="266" cy="41.5" rx="1" ry="0.5" fill="#2B2B2B"/>
</g>
<defs>
<filter id="filter0_f_5658_89829" x="263.757" y="36.8194" width="4.48611" height="3.5408" filterUnits="userSpaceOnUse" color-interpolation-filters="sRGB">
<feFlood flood-opacity="0" result="BackgroundImageFix"/>
<feBlend mode="normal" in="SourceGraphic" in2="BackgroundImageFix" result="shape"/>
<feGaussianBlur stdDeviation="0.590278" result="effect1_foregroundBlur_5658_89829"/>
</filter>
<filter id="filter1_f_5658_89829" x="264.056" y="40.0556" width="3.88889" height="2.88889" filterUnits="userSpaceOnUse" color-interpolation-filters="sRGB">
<feFlood flood-opacity="0" result="BackgroundImageFix"/>
<feBlend mode="normal" in="SourceGraphic" in2="BackgroundImageFix" result="shape"/>
<feGaussianBlur stdDeviation="0.472222" result="effect1_foregroundBlur_5658_89829"/>
</filter>
<linearGradient id="paint0_linear_5658_89829" x1="220.5" y1="0" x2="220.5" y2="898" gradientUnits="userSpaceOnUse">
<stop stop-color="#5F6679"/>
<stop offset="1" stop-color="#2A2D35"/>
</linearGradient>
<linearGradient id="paint1_linear_5658_89829" x1="439.5" y1="287" x2="439.5" y2="393" gradientUnits="userSpaceOnUse">
<stop stop-color="#575C6A"/>
<stop offset="0.0208333" stop-color="white"/>
<stop offset="0.046875" stop-color="#575C6A"/>
<stop offset="0.0677083" stop-color="#2E3034"/>
<stop offset="0.0885417" stop-color="#575C6A"/>
<stop offset="0.90625" stop-color="#555A67"/>
<stop offset="0.927083" stop-color="#44464D"/>
<stop offset="0.947917" stop-color="#575C6A"/>
<stop offset="0.96875" stop-color="#9598A1"/>
<stop offset="1" stop-color="#575C6A"/>
</linearGradient>
<linearGradient id="paint2_linear_5658_89829" x1="266" y1="32" x2="266" y2="48" gradientUnits="userSpaceOnUse">
<stop stop-color="#0B0B0B"/>
<stop offset="1"/>
</linearGradient>
<linearGradient id="paint3_linear_5658_89829" x1="262" y1="37.5" x2="270" y2="44" gradientUnits="userSpaceOnUse">
<stop stop-color="#050505"/>
<stop offset="1"/>
</linearGradient>
</defs>
</svg>
