<svg width="1440" height="500" viewBox="0 0 1440 500" fill="none" xmlns="http://www.w3.org/2000/svg">
<rect width="3.16619" height="3.16619" transform="matrix(0.799631 0.600492 -0.799631 0.600492 311.96 143.206)" fill="#B2AEEA"/>
<rect width="6.39452" height="6.39452" transform="matrix(0.799631 0.600491 -0.799631 0.600491 349.97 196.746)" fill="#B2AEEA"/>
<rect width="2.97553" height="2.97553" transform="matrix(-0.799649 -0.600468 -0.799649 0.600468 482.285 200.586)" fill="#B2AEEA"/>
<rect width="3.16619" height="3.16619" transform="matrix(0.799631 0.600492 -0.799631 0.600492 426.751 248.423)" fill="#B2AEEA"/>
<rect width="3.16619" height="3.16619" transform="matrix(0.799631 0.600491 -0.799631 0.600491 233.114 136.835)" fill="#B2AEEA"/>
<rect width="3.16621" height="3.16621" transform="matrix(0.799642 0.600477 -0.799642 0.600477 252.214 46.342)" fill="#FFD500"/>
<rect width="2.21094" height="2.21094" transform="matrix(0.799607 0.600524 -0.799607 0.600524 306.896 99.1681)" fill="#FFD500"/>
<rect width="4.12309" height="4.12309" transform="matrix(0.799631 0.600491 -0.799631 0.600491 276.417 89.7839)" fill="#FFD500"/>
<rect width="4.40224" height="4.40224" transform="matrix(0.799631 0.600492 -0.799631 0.600492 113.148 450.419)" fill="#B2AEEA"/>
<rect width="4.40227" height="4.40227" transform="matrix(0.799643 0.600475 -0.799643 0.600475 3.52026 441.563)" fill="#B2AEEA"/>
<rect width="4.40224" height="4.40224" transform="matrix(0.799631 0.600492 -0.799631 0.600492 30.0776 315.742)" fill="#FFD500"/>
<rect width="3.07672" height="3.07672" transform="matrix(0.799631 0.600492 -0.799631 0.600492 106.109 389.19)" fill="#FFD500"/>
<rect width="5.73272" height="5.73272" transform="matrix(0.79964 0.600479 -0.79964 0.600479 63.7278 376.144)" fill="#FFD500"/>
<rect width="3.76786" height="3.76786" transform="matrix(0.949508 -0.461247 0.614209 0.713044 1195.84 244.97)" fill="#B2AEEA"/>
<rect width="7.60967" height="7.60967" transform="matrix(0.949508 -0.461247 0.61421 0.713044 1288.28 225.116)" fill="#B2AEEA"/>
<rect width="3.54094" height="3.54094" transform="matrix(-0.949508 0.461247 0.61421 0.713044 1327.24 110.457)" fill="#B2AEEA"/>
<rect width="3.76791" height="3.76791" transform="matrix(0.949525 -0.461209 0.614246 0.713014 1387.51 170.918)" fill="#B2AEEA"/>
<rect width="3.76786" height="3.76786" transform="matrix(0.949508 -0.461247 0.61421 0.713044 1166.3 312.278)" fill="#B2AEEA"/>
<rect width="3.76786" height="3.76786" transform="matrix(0.949508 -0.461247 0.61421 0.713044 1030.84 273.01)" fill="#FFD500"/>
<rect width="2.6299" height="2.6299" transform="matrix(0.949496 -0.461274 0.614184 0.713064 1126.34 238.409)" fill="#FFD500"/>
<rect width="4.90662" height="4.90662" transform="matrix(0.949515 -0.461233 0.614224 0.713032 1104.19 262.701)" fill="#FFD500"/>
<rect width="7.60967" height="7.60967" transform="matrix(1.11471 0.142941 -0.190343 0.837107 960.258 144.316)" fill="#B2AEEA"/>
<rect width="3.54094" height="3.54094" transform="matrix(-1.11471 -0.142941 -0.190343 0.837107 1092.27 79.6996)" fill="#B2AEEA"/>
<rect width="3.76786" height="3.76787" transform="matrix(1.11471 0.142941 -0.190343 0.837107 1082.16 154.841)" fill="#B2AEEA"/>
<rect width="3.76786" height="3.76787" transform="matrix(1.11471 0.142941 -0.190343 0.837107 791.906 146.498)" fill="#B2AEEA"/>
<rect width="3.76786" height="3.76787" transform="matrix(1.11471 0.142941 -0.190343 0.837107 727.567 48.755)" fill="#FFD500"/>
<rect width="2.62992" height="2.62992" transform="matrix(1.11472 0.142929 -0.190359 0.837105 829.056 71.8077)" fill="#FFD500"/>
<rect width="4.9066" height="4.9066" transform="matrix(1.11471 0.142941 -0.190343 0.837107 790.862 78.4395)" fill="#FFD500"/>
</svg>
