<svg width="964" height="764" viewBox="0 0 964 764" fill="none" xmlns="http://www.w3.org/2000/svg">
<path d="M878.461 108.864C896.2 123.639 902.836 146.363 899.471 174.958C896.107 203.547 882.752 237.902 860.671 275.789C816.511 351.557 737.529 441.316 634.178 527.085C530.826 612.854 422.72 678.355 331.506 714.929C285.896 733.218 244.55 744.258 210.158 747.003C175.759 749.747 148.439 744.188 130.7 729.412C112.961 714.637 106.325 691.913 109.69 663.319C113.054 634.73 126.409 600.375 148.49 562.488C192.65 486.72 271.632 396.961 374.984 311.192C478.335 225.423 586.441 159.922 677.655 123.347C723.265 105.058 764.611 94.0184 799.003 91.274C833.403 88.5291 860.722 94.0888 878.461 108.864Z" stroke="url(#paint0_linear_1117_83520)" stroke-width="1.43446"/>
<path d="M882.393 182.836C887.624 180.147 898.497 172.8 900.139 164.925" stroke="#7AC17D" stroke-width="1.43446" stroke-linecap="round"/>
<path d="M912.232 185.88C907.962 182.204 899.608 172.858 900.357 164.89" stroke="#7AC17D" stroke-width="1.43446" stroke-linecap="round"/>
<path d="M527.571 592.249C533.641 593.087 547.653 593.506 555.141 588.481" stroke="#7AC17D" stroke-width="1.43446" stroke-linecap="round"/>
<path d="M547.6 610.858C547.308 605.758 548.445 594.16 555.335 588.576" stroke="#7AC17D" stroke-width="1.43446" stroke-linecap="round"/>
<path d="M280.62 721.174C286.222 723.287 299.626 726.702 308.427 723.456" stroke="#7AC17D" stroke-width="1.43446" stroke-linecap="round"/>
<path d="M294.163 743.446C295.471 738.456 300.186 727.498 308.583 723.584" stroke="#7AC17D" stroke-width="1.43446" stroke-linecap="round"/>
<defs>
<linearGradient id="paint0_linear_1117_83520" x1="495.221" y1="280.437" x2="693.532" y2="464.026" gradientUnits="userSpaceOnUse">
<stop stop-color="#06A68E" stop-opacity="0"/>
<stop offset="1" stop-color="#B8FF9C"/>
</linearGradient>
</defs>
</svg>
